<svg width="44" height="44" viewBox="0 0 44 44" fill="none" xmlns="http://www.w3.org/2000/svg">
<rect width="44" height="44" fill="#FFF000"/>
<g clip-path="url(#clip0)">
<path d="M33.4966 31.3007L27.2308 25.035C28.3497 23.4685 29.021 21.5664 29.021 19.5524C29.021 14.2936 24.7693 10.0419 19.5105 10.0419C14.2518 10.0419 10 14.2937 10 19.5524C10 24.8111 14.2518 29.0629 19.5105 29.0629C21.5245 29.0629 23.4266 28.3916 24.993 27.2727L31.2588 33.5384C31.8182 34.0979 32.8252 34.0979 33.4966 33.5384C34.1679 32.8672 34.1679 31.972 33.4966 31.3007ZM19.5105 26.8252C15.4825 26.8252 12.2378 23.5804 12.2378 19.5525C12.2378 15.5245 15.4825 12.2798 19.5105 12.2798C23.5385 12.2798 26.7832 15.5245 26.7832 19.5525C26.7833 23.5804 23.5385 26.8252 19.5105 26.8252Z" fill="black"/>
</g>
<defs>
<clipPath id="clip0">
<rect width="24" height="24" fill="white" transform="translate(10 10)"/>
</clipPath>
</defs>
</svg>
