<svg width="100" height="38" viewBox="0 0 100 38" fill="none" xmlns="http://www.w3.org/2000/svg">
<path d="M1.98006 29.0548C2.57407 29.9893 3.32345 30.8775 4.22765 31.7179C5.13205 32.5583 6.04596 33.283 6.97041 33.8917C7.89472 34.5008 8.95089 35.1019 10.139 35.6966L10.1191 35.6747L10.1984 35.6966C9.31372 33.8412 8.87161 32.2182 8.87161 30.8267C8.87161 30.0873 9.0335 29.3879 9.35714 28.7289C9.68043 28.0691 10.1027 27.478 10.6242 26.9568C11.146 26.4351 11.7235 25.9134 12.357 25.3916C12.9905 24.8695 13.624 24.3079 14.2583 23.7067C14.8918 23.1053 15.4695 22.4673 15.991 21.7934C16.5125 21.1193 16.9347 20.3041 17.2585 19.3475C17.5818 18.3909 17.7437 17.3472 17.7437 16.2169C17.7437 14.7964 17.5619 13.4631 17.1991 12.2165C16.836 10.9701 16.3574 9.8793 15.7636 8.94458C15.1697 8.00986 14.4206 7.12197 13.5157 6.28167C12.6114 5.44099 11.6975 4.71629 10.7732 4.10771C9.84891 3.49898 8.79281 2.89748 7.60479 2.30322L7.62449 2.32515L7.56511 2.30322C8.43629 4.18721 8.87182 5.81069 8.87182 7.17291C8.87182 7.91209 8.71013 8.61151 8.38663 9.2708C8.06306 9.93025 7.64072 10.5208 7.11933 11.0427C6.59773 11.5644 6.02023 12.0862 5.38654 12.6081C4.75265 13.1298 4.11889 13.6915 3.48527 14.2929C2.85159 14.8944 2.27409 15.5322 1.75249 16.2059C1.2311 16.88 0.808754 17.6953 0.485183 18.6518C0.161889 19.6085 0 20.6522 0 21.7824C0 23.2029 0.181102 24.5364 0.544209 25.7827C0.907386 27.0292 1.38605 28.1204 1.98006 29.0548Z" fill="#FFF000"/>
<path d="M33.7475 24.9293C33.4437 24.9293 33.1331 24.9656 32.8156 25.0382V28.0881H33.4368C35.0245 28.0881 35.8183 27.5435 35.8183 26.4542C35.8183 25.4376 35.128 24.9293 33.7475 24.9293ZM39.96 33.2075C39.96 34.8486 39.4492 36.0612 38.4276 36.8455C37.4198 37.6152 35.7907 38.0001 33.5404 38.0001C31.8561 38.0001 30.2684 37.8911 28.7774 37.6733V21.9884C30.1994 21.7705 31.718 21.6616 33.3333 21.6616C37.475 21.6616 39.5458 23.0413 39.5458 25.8007C39.5458 26.7302 39.2628 27.5217 38.6968 28.1752C38.1307 28.8142 37.3783 29.2136 36.4396 29.3734V29.4169C37.5026 29.5622 38.3516 29.9906 38.9867 30.7022C39.6356 31.4139 39.96 32.2489 39.96 33.2075ZM36.1289 32.7718C36.1289 31.6825 35.3696 31.1379 33.851 31.1379H32.8156V34.6235C33.1331 34.6961 33.4437 34.7324 33.7475 34.7324C34.5758 34.7324 35.1763 34.5726 35.5491 34.2531C35.9357 33.9336 36.1289 33.4398 36.1289 32.7718Z" fill="white"/>
<path d="M48.5462 36.2573C48.1597 36.7947 47.6765 37.2231 47.0967 37.5426C46.5306 37.8476 45.9508 38.0001 45.3571 38.0001C44.0594 38.0001 43.1275 37.6443 42.5615 36.9326C42.0093 36.221 41.7332 34.9793 41.7332 33.2075V26.4542H45.6264V32.7718C45.6264 33.6141 45.7023 34.1732 45.8541 34.4492C46.006 34.7106 46.289 34.8413 46.7032 34.8413C47.1312 34.8413 47.5108 34.5944 47.8422 34.1006C48.1873 33.6068 48.3599 33.0187 48.3599 32.3361V26.4542H52.2945V37.7822H48.6705L48.5877 36.2573H48.5462Z" fill="white"/>
<path d="M63.5984 26.2364V29.5041C62.0522 29.5041 60.8856 29.8091 60.0987 30.419C59.3117 31.029 58.9183 31.8859 58.9183 32.9896V37.7822H54.9008V26.4542H58.6077L58.6284 28.6327H58.6698C59.8571 27.0352 61.4999 26.2364 63.5984 26.2364Z" fill="white"/>
<path d="M69.5493 27.9792C69.9359 27.4418 70.4122 27.0206 70.9782 26.7156C71.5581 26.3961 72.1448 26.2364 72.7384 26.2364C74.1052 26.2364 75.0854 26.643 75.679 27.4563C76.2727 28.2551 76.5695 29.6638 76.5695 31.6825V37.7822H72.6763V32.1182C72.6763 31.029 72.5797 30.3028 72.3864 29.9398C72.2069 29.5767 71.8756 29.3952 71.3924 29.3952C70.9644 29.3952 70.5779 29.642 70.2327 30.1358C69.9014 30.6296 69.7357 31.2178 69.7357 31.9004V37.7822H65.8011V26.4542H69.4251L69.5079 27.9792H69.5493Z" fill="white"/>
<path d="M82.1944 31.029H85.6942C85.6942 29.6493 85.1074 28.9595 83.934 28.9595C82.8709 28.9595 82.2911 29.6493 82.1944 31.029ZM82.2359 33.4253C82.4706 34.5872 83.2575 35.1681 84.5966 35.1681C85.6321 35.1681 86.6192 34.9139 87.5579 34.4056L88.3863 37.1287C87.1162 37.7096 85.7356 38.0001 84.2446 38.0001C82.4637 38.0001 81.0348 37.47 79.9579 36.4098C78.8811 35.3496 78.3427 33.9191 78.3427 32.1182C78.3427 30.3028 78.8328 28.8723 79.813 27.8267C80.807 26.7665 82.1461 26.2364 83.8304 26.2364C85.5561 26.2364 86.9022 26.752 87.8686 27.7831C88.835 28.7997 89.3182 30.2448 89.3182 32.1182C89.3182 32.5104 89.2837 32.946 89.2146 33.4253H82.2359Z" fill="white"/>
<path d="M100 26.2364V29.5041C98.4538 29.5041 97.2872 29.8091 96.5003 30.419C95.7134 31.029 95.3199 31.8859 95.3199 32.9896V37.7822H91.3025V26.4542H95.0093L95.03 28.6327H95.0714C96.2587 27.0352 97.9016 26.2364 100 26.2364Z" fill="white"/>
<path d="M39.3387 4.68369C37.9444 3.95754 36.5293 3.59446 35.0935 3.59446C34.4446 3.59446 33.9545 3.71791 33.6232 3.9648C33.2919 4.19717 33.1262 4.50941 33.1262 4.90154C33.1262 5.5115 33.5749 5.9472 34.4723 6.20861C36.6397 6.81858 38.1653 7.55199 39.0488 8.40886C39.9324 9.25119 40.3742 10.3332 40.3742 11.6548C40.3742 13.2523 39.8496 14.4722 38.8003 15.3146C37.7511 16.1424 36.1703 16.5563 34.0581 16.5563C33.1745 16.5563 32.2219 16.4038 31.2003 16.0988C30.1925 15.7793 29.3849 15.3872 28.7774 14.9225L29.7093 11.5458C30.4134 12.0541 31.1727 12.4535 31.9872 12.744C32.8156 13.0345 33.5749 13.1797 34.2652 13.1797C35.5077 13.1797 36.1289 12.7077 36.1289 11.7637C36.1289 11.1537 35.5767 10.6817 34.4723 10.3477C32.4566 9.73772 31.0208 9.0043 30.1649 8.14744C29.3089 7.29058 28.881 6.20861 28.881 4.90154C28.881 3.46375 29.3987 2.32369 30.4341 1.48135C31.4833 0.639016 32.9674 0.217846 34.8864 0.217846C36.9297 0.217846 38.6554 0.580923 40.0635 1.30708L39.3387 4.68369Z" fill="white"/>
<path d="M43.4442 6.3611C44.4382 5.31544 45.8395 4.79261 47.648 4.79261C49.4566 4.79261 50.8578 5.31544 51.8518 6.3611C52.8458 7.40676 53.3428 8.84455 53.3428 10.6745C53.3428 12.5044 52.8458 13.9421 51.8518 14.9878C50.8578 16.0335 49.4566 16.5563 47.648 16.5563C45.8395 16.5563 44.4382 16.0335 43.4442 14.9878C42.4502 13.9421 41.9532 12.5044 41.9532 10.6745C41.9532 8.84455 42.4502 7.40676 43.4442 6.3611ZM46.2605 12.9183C46.5643 13.3685 47.0268 13.5936 47.648 13.5936C48.2693 13.5936 48.7318 13.3685 49.0355 12.9183C49.3392 12.4681 49.4911 11.7201 49.4911 10.6745C49.4911 9.62879 49.3392 8.88086 49.0355 8.43064C48.7318 7.98043 48.2693 7.75532 47.648 7.75532C47.0268 7.75532 46.5643 7.98043 46.2605 8.43064C45.9568 8.88086 45.805 9.62879 45.805 10.6745C45.805 11.7201 45.9568 12.4681 46.2605 12.9183Z" fill="white"/>
<path d="M61.9461 14.8135C61.5595 15.3509 61.0763 15.7793 60.4965 16.0988C59.9305 16.4038 59.3506 16.5563 58.757 16.5563C57.4592 16.5563 56.5274 16.2005 55.9613 15.4889C55.4091 14.7772 55.133 13.5355 55.133 11.7637V5.01046H59.0262V11.328C59.0262 12.1703 59.1021 12.7295 59.254 13.0054C59.4058 13.2668 59.6889 13.3975 60.103 13.3975C60.531 13.3975 60.9107 13.1506 61.242 12.6569C61.5871 12.1631 61.7597 11.5749 61.7597 10.8923V5.01046H65.6943V16.3384H62.0703L61.9875 14.8135H61.9461Z" fill="white"/>
<path d="M72.0489 6.53538C72.4355 5.99803 72.9118 5.57686 73.4778 5.27187C74.0576 4.95237 74.6444 4.79261 75.238 4.79261C76.6048 4.79261 77.585 5.19926 78.1786 6.01255C78.7723 6.81132 79.0691 8.22006 79.0691 10.2388V16.3384H75.1759V10.6745C75.1759 9.58522 75.0792 8.85907 74.886 8.49599C74.7065 8.13292 74.3752 7.95138 73.892 7.95138C73.464 7.95138 73.0774 8.19827 72.7323 8.69206C72.401 9.18584 72.2353 9.77402 72.2353 10.4566V16.3384H68.3007V5.01046H71.9247L72.0075 6.53538H72.0489Z" fill="white"/>
<path d="M80.9458 10.6745C80.9458 8.80098 81.3254 7.35593 82.0848 6.33932C82.8579 5.30818 83.8933 4.79261 85.191 4.79261C86.3645 4.79261 87.3516 5.30092 88.1523 6.31753H88.1938V0H92.1284V16.3384H88.5044L88.4215 14.8135H88.3801C87.5104 15.9754 86.4473 16.5563 85.191 16.5563C83.9485 16.5563 82.9269 16.0335 82.1262 14.9878C81.3392 13.9421 80.9458 12.5044 80.9458 10.6745ZM84.6733 10.6745C84.6733 11.5458 84.839 12.2212 85.1703 12.7004C85.5017 13.1652 85.9227 13.3975 86.4335 13.3975C86.972 13.3975 87.3999 13.1724 87.7175 12.7222C88.035 12.272 88.1938 11.6257 88.1938 10.7834V10.5655C88.1938 9.73772 88.035 9.0987 87.7175 8.64849C87.3999 8.18375 86.972 7.95138 86.4335 7.95138C85.8813 7.95138 85.4464 8.18375 85.1289 8.64849C84.8252 9.0987 84.6733 9.77402 84.6733 10.6745Z" fill="white"/>
</svg>
