<svg width="24" height="24" viewBox="0 0 24 24" fill="none" xmlns="http://www.w3.org/2000/svg">
<path d="M23.4966 21.3007L17.2308 15.035C18.3497 13.4685 19.021 11.5664 19.021 9.55242C19.021 4.29363 14.7693 0.0419312 9.51054 0.0419312C4.25182 0.0419312 0 4.29369 0 9.55242C0 14.8111 4.25176 19.0629 9.51048 19.0629C11.5245 19.0629 13.4266 18.3916 14.993 17.2727L21.2588 23.5384C21.8182 24.0979 22.8252 24.0979 23.4966 23.5384C24.1679 22.8672 24.1679 21.972 23.4966 21.3007ZM9.51048 16.8252C5.4825 16.8252 2.23777 13.5804 2.23777 9.55248C2.23777 5.52449 5.4825 2.27976 9.51048 2.27976C13.5385 2.27976 16.7832 5.52449 16.7832 9.55248C16.7833 13.5804 13.5385 16.8252 9.51048 16.8252Z" fill="black"/>
</svg>
