<svg xmlns="http://www.w3.org/2000/svg" xmlns:xlink="http://www.w3.org/1999/xlink" width="39.5" height="39.5" viewBox="0 0 39.5 39.5">
  <defs>
    <style>
      .cls-1 {
        fill-rule: evenodd;
        filter: url(#filter);
      }
    </style>
    <filter id="filter" x="0.5" y="0.5" width="40" height="40" filterUnits="userSpaceOnUse">
      <feFlood result="flood" flood-color="#fff"/>
      <feComposite result="composite" operator="in" in2="SourceGraphic"/>
      <feBlend result="blend" in2="SourceGraphic"/>
    </filter>
  </defs>
  <path id="Forma_1" data-name="Forma 1" class="cls-1" d="M37.82,10.5A20,20,0,1,0,30.5,37.82,20,20,0,0,0,37.82,10.5ZM28.5,34.356A16,16,0,1,1,34.356,12.5,16,16,0,0,1,28.5,34.356ZM27.7,19.688L17.227,13.58a1.044,1.044,0,0,0-1.719.992L15.562,26.7a1.062,1.062,0,0,0,1.741,1l10.394-6A1.062,1.062,0,0,0,27.7,19.688Z" transform="translate(-0.5 -0.5)"/>
</svg>
